<?xml version="1.0" standalone="no"?>
<!DOCTYPE svg PUBLIC "-//W3C//DTD SVG 20010904//EN"
 "http://www.w3.org/TR/2001/REC-SVG-20010904/DTD/svg10.dtd">
<svg version="1.0" xmlns="http://www.w3.org/2000/svg"
 width="400.000000pt" height="284.000000pt" viewBox="0 0 400.000000 284.000000"
 preserveAspectRatio="xMidYMid meet">

<g transform="translate(0.000000,284.000000) scale(0.100000,-0.100000)"
fill="#000000" stroke="none">
<path d="M770 2619 c0 -5 4 -8 9 -4 5 3 12 1 16 -5 3 -5 1 -10 -6 -10 -7 0
-10 -3 -6 -6 3 -3 11 -3 17 1 8 5 8 11 -1 21 -14 17 -29 18 -29 3z"/>
<path d="M844 2298 c-4 -12 -7 -35 -6 -50 0 -16 -3 -28 -6 -28 -4 0 -7 -18 -7
-41 0 -22 -3 -43 -7 -45 -5 -3 -8 -11 -8 -17 0 -7 4 -6 11 3 9 12 10 12 5 -3
-3 -10 -6 -21 -6 -23 0 -3 -6 -2 -12 2 -7 4 -4 -2 6 -14 23 -27 25 -27 25 -4
0 9 4 35 10 57 11 43 17 172 8 181 -3 3 -8 -5 -13 -18z"/>
<path d="M891 2290 c-2 -3 -4 -23 -6 -45 -5 -53 -21 -140 -36 -193 -15 -54 -6
-63 28 -30 23 23 25 29 13 44 -12 14 -12 18 4 30 15 11 17 16 7 28 -8 9 -8 15
-2 18 6 1 13 30 15 63 2 33 1 44 -2 25 -6 -34 -6 -34 -12 15 -4 28 -8 48 -9
45z"/>
<path d="M704 2255 c3 -21 16 -31 16 -12 0 9 -4 18 -9 21 -5 4 -8 -1 -7 -9z"/>
<path d="M720 2213 c0 -6 7 -16 15 -23 8 -7 13 -15 11 -19 -2 -3 2 -12 10 -18
8 -8 15 -9 19 -3 3 6 1 10 -5 10 -7 0 -10 6 -7 13 2 6 10 11 16 9 7 -1 10 2 6
8 -5 8 -11 8 -20 0 -10 -8 -17 -5 -29 12 -9 12 -16 17 -16 11z"/>
<path d="M954 2195 c0 -19 3 -22 17 -15 9 5 20 6 24 2 5 -4 5 -1 1 5 -4 7 -15
17 -25 22 -14 8 -17 5 -17 -14z"/>
<path d="M948 2140 c-14 -16 -22 -32 -17 -36 5 -3 9 0 9 6 0 6 5 8 10 5 6 -3
10 3 10 15 0 13 4 19 12 14 6 -4 8 -3 4 4 -3 5 0 13 6 15 7 3 8 6 3 6 -6 1
-22 -12 -37 -29z"/>
<path d="M3368 2150 c-347 -41 -560 -271 -623 -676 -59 -375 89 -665 348 -682
205 -13 367 104 413 298 18 73 17 233 0 291 -44 146 -140 238 -279 269 -70 16
-131 7 -204 -30 -31 -16 -59 -28 -60 -26 -8 7 33 119 68 187 69 133 206 246
352 290 66 21 67 22 67 55 0 19 -3 33 -7 33 -5 -1 -38 -5 -75 -9z m-214 -624
c43 -18 89 -75 111 -139 27 -77 32 -263 10 -347 -35 -134 -123 -193 -205 -137
-73 48 -110 194 -110 426 0 137 0 137 28 164 49 47 106 58 166 33z"/>
<path d="M500 2105 c0 -10 9 -15 28 -14 24 0 25 1 7 10 -19 8 -19 9 -1 6 26
-3 33 -27 8 -27 -11 0 -23 -6 -25 -12 -3 -8 -6 -9 -6 -2 -1 7 -12 9 -28 6 -25
-5 -25 -6 -8 -18 10 -8 14 -14 8 -14 -14 0 -34 25 -26 33 3 4 16 7 27 8 18 1
18 2 -4 9 -19 6 -21 8 -6 9 11 1 17 4 13 7 -9 9 -117 -25 -117 -37 0 -6 -4 -8
-9 -5 -17 11 -56 -18 -55 -41 2 -33 -18 -46 -42 -27 -10 8 -13 13 -6 9 6 -3
19 1 28 9 14 15 14 16 -3 12 -40 -9 -63 -19 -63 -27 0 -5 -11 -9 -24 -9 -14 0
-27 -4 -30 -8 -3 -5 43 -40 102 -79 139 -91 162 -105 162 -97 0 4 7 1 15 -6 8
-7 46 -15 83 -18 55 -3 76 0 114 18 56 26 163 124 153 140 -3 6 -3 10 2 9 38
-7 43 12 8 31 -13 7 -22 17 -19 22 3 4 -1 8 -9 8 -8 0 -18 7 -21 16 -8 20 -31
4 -39 -25 -4 -15 3 -20 36 -25 22 -4 37 -9 35 -12 -3 -2 -54 3 -114 12 -70 10
-138 14 -189 11 -60 -5 -74 -4 -55 4 30 13 202 16 249 5 28 -7 33 -6 28 7 -3
8 -3 18 1 21 12 12 10 36 -3 36 -7 0 -24 9 -38 20 -26 20 -77 20 -77 -1 0 -5
-4 -9 -9 -9 -5 0 -8 10 -5 23 3 21 -1 23 -36 25 -30 2 -40 -1 -40 -13z m-63
-37 c-3 -8 -6 -5 -6 6 -1 11 2 17 5 13 3 -3 4 -12 1 -19z m183 7 c-7 -9 -15
-13 -19 -10 -3 3 1 10 9 15 21 14 24 12 10 -5z m36 -7 c4 -7 4 -10 -1 -6 -4 4
-15 2 -24 -5 -14 -11 -14 -10 -2 6 16 20 18 21 27 5z m-246 -4 c0 -8 -19 -13
-24 -6 -3 5 1 9 9 9 8 0 15 -2 15 -3z m155 -3 c17 -7 16 -9 -13 -16 -18 -4
-36 -4 -39 -1 -4 3 5 6 18 6 19 0 21 2 9 10 -18 11 -3 12 25 1z m130 -11 c3
-5 2 -10 -4 -10 -5 0 -13 5 -16 10 -3 6 -2 10 4 10 5 0 13 -4 16 -10z m-450
-71 c-4 -5 -12 -9 -18 -8 -9 0 -8 2 1 6 6 2 9 10 6 15 -4 7 -2 8 5 4 6 -4 9
-12 6 -17z m119 -104 c-4 -8 -11 -12 -17 -8 -8 5 -7 8 1 11 7 2 9 9 6 14 -4 7
-2 8 4 4 6 -4 9 -13 6 -21z"/>
<path d="M585 2100 c-3 -6 1 -7 9 -4 18 7 21 14 7 14 -6 0 -13 -4 -16 -10z"/>
<path d="M901 2091 c-7 -5 -10 -14 -7 -20 11 -17 26 -13 19 6 -5 12 -3 14 7 8
9 -5 11 -4 6 3 -8 14 -7 14 -25 3z"/>
<path d="M1865 1980 c-16 -4 -52 -12 -80 -18 -145 -30 -165 -36 -165 -49 0 -8
11 -13 28 -13 15 0 33 -5 40 -12 9 -9 12 -143 12 -540 l0 -528 25 0 c21 0 25
5 25 29 0 43 15 46 57 12 69 -55 128 -75 224 -75 73 0 93 4 142 27 108 54 164
151 187 325 18 135 -10 315 -60 397 -46 75 -101 105 -190 105 -83 0 -135 -22
-177 -75 l-28 -35 -5 228 -5 228 -30 -6z m224 -498 c58 -43 88 -167 77 -328
-7 -126 -24 -181 -67 -226 -60 -63 -134 -49 -175 32 -22 43 -23 56 -24 266 0
216 0 221 23 242 48 45 117 51 166 14z"/>
<path d="M2649 1985 c-4 -4 -248 -55 -263 -55 -3 0 -6 -7 -6 -15 0 -10 10 -15
28 -15 15 0 33 -5 40 -12 9 -9 12 -144 12 -545 l0 -533 100 0 100 0 0 590 c0
325 -1 590 -3 590 -2 0 -6 -2 -8 -5z"/>
<path d="M1045 1965 c-5 -2 -54 -7 -107 -10 l-97 -7 15 -46 c10 -33 14 -100
14 -225 0 -133 3 -178 13 -181 6 -2 32 -9 57 -16 45 -12 59 -17 113 -39 l27
-11 0 221 c0 253 -6 239 96 220 66 -12 128 -40 152 -70 41 -51 55 -105 56
-216 0 -67 -5 -125 -13 -150 -33 -98 -104 -146 -220 -149 l-66 -1 -1 50 c-1
28 -2 57 -3 66 -1 12 -38 27 -138 57 -191 57 -207 61 -303 68 -143 11 -258
-31 -313 -115 -107 -161 -14 -367 219 -488 141 -73 327 -124 446 -122 60 1 61
2 28 11 -215 63 -345 133 -452 245 -77 81 -111 151 -112 230 -1 72 18 105 81
141 48 27 163 39 266 28 l67 -8 0 -288 0 -288 81 -22 c44 -12 92 -22 107 -23
l25 -2 1 175 1 175 110 6 c126 7 200 26 267 68 97 62 138 154 138 311 0 235
-99 357 -320 396 -68 12 -210 18 -235 9z"/>
<path d="M1475 560 c-4 -16 -12 -30 -18 -30 -9 0 -9 -2 0 -8 6 -4 13 -28 15
-52 3 -42 5 -45 33 -48 l30 -3 -22 16 c-28 20 -31 69 -5 84 9 6 11 11 5 11 -7
0 -13 11 -13 24 0 37 -17 41 -25 6z"/>
<path d="M2940 575 c0 -9 5 -15 11 -13 6 2 11 8 11 13 0 5 -5 11 -11 13 -6 2
-11 -4 -11 -13z"/>
<path d="M3226 583 c-11 -11 -6 -23 9 -23 8 0 15 4 15 9 0 13 -16 22 -24 14z"/>
<path d="M3295 561 c-3 -17 -12 -31 -18 -31 -9 0 -9 -2 0 -8 6 -4 13 -27 15
-52 2 -34 7 -46 22 -48 10 -2 23 1 30 8 6 6 7 11 1 10 -27 -6 -35 2 -35 35 0
23 6 38 15 41 14 6 13 8 -1 19 -9 6 -14 16 -11 21 3 6 2 16 -3 23 -5 10 -10 4
-15 -18z"/>
<path d="M497 563 c4 -10 15 -33 25 -51 10 -18 18 -46 18 -62 0 -17 5 -30 10
-30 6 0 10 14 10 31 0 16 11 50 25 75 27 49 29 54 17 54 -5 0 -17 -18 -27 -40
-20 -45 -29 -44 -50 6 -14 34 -40 50 -28 17z"/>
<path d="M1010 500 c0 -64 3 -80 15 -80 10 0 15 10 15 30 0 28 3 30 35 30 32
0 35 -2 35 -30 0 -16 5 -30 10 -30 6 0 10 33 10 80 0 81 -16 112 -22 43 -3
-35 -6 -38 -35 -41 -32 -3 -33 -2 -33 37 0 30 -4 41 -15 41 -12 0 -15 -16 -15
-80z"/>
<path d="M1404 500 c1 -57 5 -80 14 -80 8 0 12 23 12 80 0 60 -3 80 -13 80
-10 0 -13 -20 -13 -80z"/>
<path d="M1550 500 c0 -86 16 -110 22 -32 4 63 -1 112 -13 112 -5 0 -9 -36 -9
-80z"/>
<path d="M1830 558 c-27 -30 -28 -98 0 -123 31 -28 79 -24 107 9 29 34 30 75
2 110 -27 34 -79 36 -109 4z m90 -17 c33 -63 -27 -147 -69 -97 -13 16 -17 87
-7 105 12 19 64 13 76 -8z"/>
<path d="M2250 570 c0 -5 9 -10 20 -10 18 0 20 -7 20 -70 0 -56 3 -70 15 -70
12 0 15 14 15 70 0 68 1 70 25 70 14 0 25 5 25 10 0 6 -27 10 -60 10 -33 0
-60 -4 -60 -10z"/>
<path d="M2710 501 c0 -82 16 -121 22 -54 3 35 6 38 41 44 45 7 50 11 50 45 0
33 -17 44 -70 44 l-43 0 0 -79z m75 53 c18 -18 16 -33 -7 -47 -23 -15 -48 -1
-48 26 0 40 26 50 55 21z"/>
<path d="M941 531 c-8 -5 -20 -7 -28 -4 -10 4 -13 -8 -13 -51 0 -31 5 -56 10
-56 6 0 10 21 10 46 0 37 4 47 20 51 11 3 20 9 20 14 0 11 -1 11 -19 0z"/>
<path d="M1200 527 c-30 -16 -41 -48 -26 -78 13 -27 61 -38 80 -18 8 9 5 10
-15 5 -18 -4 -31 -1 -40 11 -11 13 -11 17 -1 21 10 3 10 7 2 18 -14 16 -5 34
16 34 20 0 30 -30 13 -41 -10 -6 -8 -8 9 -6 16 1 22 8 22 24 0 30 -30 45 -60
30z"/>
<path d="M1333 526 c24 -19 21 -36 -7 -36 -28 0 -49 -22 -44 -47 2 -14 13 -18
46 -19 l42 -2 0 49 c0 38 -4 51 -19 59 -28 14 -39 12 -18 -4z m17 -66 c0 -24
-26 -38 -42 -22 -16 16 -2 42 22 42 13 0 20 -7 20 -20z"/>
<path d="M2155 529 c-4 -6 -13 -8 -21 -5 -11 4 -14 -7 -14 -49 0 -30 5 -55 10
-55 6 0 10 21 10 46 0 37 4 47 20 51 11 3 20 9 20 14 0 12 -17 11 -25 -2z"/>
<path d="M2390 520 c-39 -39 -16 -100 39 -100 36 0 51 17 51 56 0 23 -7 38
-22 48 -30 21 -44 20 -68 -4z m66 -27 c8 -31 -6 -58 -31 -58 -22 0 -35 33 -24
63 12 32 47 29 55 -5z"/>
<path d="M2550 531 c0 -5 9 -11 20 -14 24 -6 28 -58 5 -77 -27 -22 -45 -4 -45
45 0 25 -4 45 -10 45 -6 0 -10 -35 -10 -85 0 -50 4 -85 10 -85 6 0 10 14 10
30 0 27 3 30 30 30 46 0 69 69 34 104 -17 17 -44 22 -44 7z"/>
<path d="M2896 531 c-3 -5 1 -11 9 -15 9 -3 15 0 15 9 0 16 -16 20 -24 6z"/>
<path d="M3023 528 c-27 -13 -36 -45 -20 -78 15 -31 61 -39 88 -14 49 44 -8
121 -68 92z m52 -53 c0 -31 -4 -41 -19 -43 -22 -5 -36 14 -36 49 0 32 8 41 35
37 16 -2 20 -10 20 -43z"/>
<path d="M3180 530 c-8 -5 -24 -7 -34 -4 -17 6 -18 2 -12 -26 3 -18 6 -43 6
-56 0 -44 19 -24 22 23 3 41 6 48 28 53 14 3 20 9 14 12 -5 4 -16 3 -24 -2z"/>
<path d="M3457 533 c-4 -3 -7 -26 -7 -50 0 -31 -5 -45 -16 -50 -20 -7 -31 10
-39 59 -9 50 -25 49 -25 -2 0 -44 29 -84 55 -74 18 7 18 4 5 -31 -5 -14 -20
-30 -32 -35 -22 -8 -22 -9 4 -9 36 -1 54 28 62 99 4 30 10 65 13 78 5 21 -6
30 -20 15z"/>
<path d="M642 518 c-17 -17 -15 -73 3 -88 19 -16 34 -5 17 12 -26 26 -7 78 29
78 34 0 39 -62 7 -84 -18 -13 -19 -16 -6 -16 39 0 60 50 38 91 -12 22 -68 27
-88 7z"/>
<path d="M770 488 c0 -58 8 -67 58 -65 l42 1 0 53 c0 63 -17 72 -22 12 -2 -27
-9 -46 -21 -53 -23 -15 -37 6 -37 57 0 20 -4 37 -10 37 -5 0 -10 -19 -10 -42z"/>
<path d="M1603 523 c12 -3 17 -16 18 -46 1 -23 1 -45 0 -49 0 -5 4 -8 9 -8 6
0 10 25 10 55 0 54 -1 55 -27 54 -17 -1 -21 -3 -10 -6z"/>
<path d="M1985 503 c1 -16 3 -40 3 -55 2 -24 6 -28 30 -28 23 1 24 2 10 11
-13 7 -18 23 -18 54 0 31 -4 45 -14 45 -8 0 -12 -10 -11 -27z"/>
<path d="M2060 485 c0 -25 0 -48 -1 -52 0 -4 4 -9 10 -11 7 -2 11 17 11 52 0
31 -4 56 -10 56 -5 0 -10 -20 -10 -45z"/>
<path d="M2850 476 c0 -31 5 -56 10 -56 6 0 10 20 10 45 0 25 0 48 1 52 0 4
-4 9 -10 11 -7 2 -11 -17 -11 -52z"/>
<path d="M2940 475 c0 -38 4 -55 13 -55 12 0 13 18 8 93 0 9 -5 17 -11 17 -5
0 -10 -25 -10 -55z"/>
<path d="M3220 475 c0 -40 4 -55 14 -55 9 0 14 16 15 55 1 43 -2 55 -14 55
-12 0 -15 -13 -15 -55z"/>
<path d="M1685 431 c-3 -5 -1 -13 5 -16 8 -5 7 -12 -2 -23 -11 -13 -11 -14 2
-10 17 5 27 58 11 58 -5 0 -12 -4 -16 -9z"/>
</g>
</svg>
