<svg width="100" height="100" viewBox="0 0 100 100" fill="none" xmlns="http://www.w3.org/2000/svg">
<ellipse cx="43.4525" cy="77.1973" rx="8.73455" ry="8.73455" transform="rotate(0.755938 43.4525 77.1973)" fill="#C5C5C5"/>
<path d="M52.76 77.5965C52.4436 82.5628 48.1612 86.3319 43.1953 86.0155C42.2698 85.9569 41.3849 85.7593 40.561 85.4465C40.561 85.4465 43.6519 86.0336 46.79 83.9341C48.3142 82.9145 49.4851 80.7626 49.5048 78.929L34.7217 76.3404C34.7361 75.2506 35.4866 73.4438 35.4866 73.4438L52.76 77.5965Z" fill="#9E9E9E"/>
<path d="M76.9122 79.8845L76.2893 82.2852C75.9519 83.5857 74.6229 84.3673 73.3214 84.0288L16.8177 69.3592C15.517 69.0219 14.7353 67.693 15.0738 66.3916L15.6967 63.9909C15.9136 63.1538 16.559 62.4955 17.391 62.2607L23.9236 60.416L24.4016 60.2813C24.5739 60.2329 24.7444 60.1782 24.9112 60.117C27.2261 59.2812 28.996 57.3538 29.6204 54.9505L33.7968 38.867C36.188 29.6558 44.501 23.5535 53.5989 23.5783C53.6258 23.3686 53.6664 23.1583 53.7207 22.9486C54.4326 20.2052 57.2351 18.5582 59.9786 19.2711C62.7222 19.9831 64.3694 22.7853 63.6566 25.5285C63.6022 25.7383 63.5353 25.9419 63.4569 26.1385C66.7021 27.9331 69.3371 30.555 71.1593 33.6542C73.8065 38.1578 74.7366 43.6721 73.3192 49.1287L69.1428 65.2121C68.5184 67.6155 69.1278 70.1609 70.7439 72.0169C70.8609 72.1516 70.9827 72.2812 71.1099 72.4079L71.4615 72.7582L76.2723 77.5472C76.885 78.1579 77.1283 79.0462 76.9105 79.8832L76.9122 79.8845Z" fill="#EBEBEB"/>
<path d="M70.7448 72.0168L37.8902 63.487C37.8902 63.487 39.2205 61.8247 41.4453 62.4024C44.5166 63.1996 47.5167 63.6293 49.9778 63.8956C52.6887 64.1891 55.5579 63.8192 57.8427 62.3322C61.1372 60.1876 62.6346 56.2074 63.929 52.4955C65.4155 48.2322 66.9162 43.8949 67.1212 39.3839C67.326 34.8739 65.109 28.1918 58.7451 24.0187C58.7685 24.0248 60.9302 24.5882 63.457 26.1373C66.7021 27.9319 69.3372 30.5538 71.1594 33.653C73.8066 38.1566 74.7367 43.6709 73.3193 49.1275L69.1429 65.2109C68.5185 67.6143 69.1279 70.1598 70.744 72.0157L70.7448 72.0168Z" fill="#DEDEDE"/>
<path d="M60.5876 24.6719C60.8832 23.7019 60.8696 22.6362 60.529 21.6785C60.1447 20.5982 59.3504 19.6727 58.3488 19.1157C58.8825 19.0801 59.4314 19.1287 59.9774 19.2698C62.721 19.9817 64.3682 22.784 63.6554 25.5272C63.601 25.737 63.5341 25.9405 63.4557 26.1372L60.5868 24.6707L60.5876 24.6719Z" fill="#DEDEDE"/>
<path d="M76.9121 79.8842L76.2891 82.2849C75.9518 83.5855 74.6228 84.3671 73.3213 84.0286L71.912 83.663C72.6302 83.4401 73.1112 82.7915 73.4052 81.9506C73.6134 81.3529 73.8281 80.5987 73.983 80.02C74.1271 79.4843 73.9363 78.9151 73.4987 78.5739C71.8818 77.3116 68.0079 74.292 67.0868 73.62C65.9143 72.7648 64.8523 71.6707 64.3812 70.2985L64.5556 69.6272L70.0296 71.0487C70.2401 71.3883 70.4781 71.7113 70.7438 72.0167C70.8607 72.1514 70.9825 72.281 71.1097 72.4077L71.4614 72.7579L76.2722 77.5469C76.8848 78.1576 77.1282 79.046 76.9104 79.8829L76.9121 79.8842Z" fill="#DEDEDE"/>
<path d="M71.4629 72.7592L23.924 60.4169L24.4019 60.2822C24.5743 60.2337 24.7448 60.1791 24.9116 60.1179L70.7453 72.0179C70.8622 72.1526 70.984 72.2822 71.1112 72.4089L71.4629 72.7592Z" fill="#F7F7F7"/>
<path d="M53.2785 28.6652C52.7368 27.0589 51.0359 26.1558 49.4017 26.6063C44.7474 27.8905 40.5677 30.8992 37.9463 34.9609C37.4413 35.7433 36.9752 36.6474 37.1359 37.5651C37.3631 38.8601 38.6963 39.606 39.8847 40.1701C41.3902 40.8843 43.1686 41.6013 44.6521 40.8436C46.003 40.1531 46.5223 38.5374 47.21 37.185C48.2158 35.2068 49.8434 33.5587 51.786 32.4874C53.1422 31.7402 53.7737 30.1328 53.2784 28.6661L53.2785 28.6652Z" fill="white"/>
<path d="M41.9457 46.6793C42.4337 45.5929 41.8104 44.3316 40.651 44.0588C39.5735 43.8047 38.4652 43.5587 37.5345 43.2672C37.0186 43.106 36.4442 42.9481 35.9567 43.18C35.4272 43.4329 35.1978 44.0502 35.0172 44.6087C34.7365 45.4794 34.4548 46.35 34.1739 47.2217C33.8164 48.3285 33.4677 49.578 33.9995 50.6122C34.5166 51.6183 35.766 52.0885 36.8907 51.9651C38.2885 51.8103 39.511 50.891 40.3497 49.7618C40.7802 49.1815 41.4231 47.8437 41.9455 46.6802L41.9457 46.6793Z" fill="white"/>
<path d="M21.8075 63.7537C22.0872 63.4237 21.7677 62.9323 21.3522 63.0527L20.1301 63.4076C19.5232 63.5838 18.8933 63.7736 18.4293 64.2018C17.7805 64.8027 17.5921 65.738 17.4377 66.6089C17.4224 66.6943 17.4094 66.7831 17.3992 66.8724C17.3389 67.427 17.6931 67.9433 18.2334 68.0834C18.7915 68.2286 19.3726 67.9282 19.5689 67.3863C20.0848 65.9639 21.0518 64.6441 21.8075 63.7537Z" fill="white"/>
<path d="M54.785 23.5303C55.0936 22.0894 56.0656 20.7744 57.0303 20.2371C57.3906 20.0372 57.8107 20.3174 57.7858 20.7401C57.7752 20.9195 57.6701 21.0682 57.538 21.1817C56.2482 22.2907 56.0975 23.5778 56.0975 23.5778L56.0634 23.5716C55.6672 23.5182 55.2673 23.5022 54.8693 23.5249L54.785 23.5303Z" fill="white"/>
<path fill-rule="evenodd" clip-rule="evenodd" d="M30.936 30.7135C31.5466 31.2684 32.4913 31.2232 33.0462 30.6126C33.601 30.002 33.5558 29.0572 32.9453 28.5024L24.4253 20.7603C23.8147 20.2054 22.8699 20.2506 22.3151 20.8612C21.7602 21.4718 21.8054 22.4166 22.416 22.9714L30.936 30.7135ZM37.7975 24.3576C37.8369 25.1817 38.5369 25.8178 39.361 25.7784C40.1851 25.7389 40.8212 25.0389 40.7817 24.2149L40.2317 12.7158C40.1923 11.8918 39.4923 11.2557 38.6682 11.2951C37.8441 11.3345 37.208 12.0345 37.2474 12.8586L37.7975 24.3576ZM27.273 35.9394C28.0971 35.9 28.7971 36.5361 28.8366 37.3602C28.876 38.1842 28.2399 38.8843 27.4158 38.9237L15.9168 39.4737C15.0927 39.5131 14.3927 38.877 14.3533 38.0529C14.3138 37.2289 14.9499 36.5288 15.774 36.4894L27.273 35.9394Z" fill="#D1D1D1"/>
</svg>
